<svg width="70" height="70" viewBox="0 0 70 70" fill="none" xmlns="http://www.w3.org/2000/svg">
<path d="M50.3125 8.75L47.1523 19.9646L40.8333 23.2648L47.1523 26.5635L50.3125 36.4583L53.4727 26.5621L59.7917 23.2633L53.4727 19.966L50.3125 8.75ZM29.1667 17.5L27.7083 23.3333L23.3333 24.7917L27.7083 26.25L29.1667 32.0833L30.625 26.25L35 24.7917L30.625 23.3333L29.1667 17.5ZM8.75 43.75C8.75 43.3632 8.90365 42.9923 9.17714 42.7188C9.45063 42.4453 9.82156 42.2917 10.2083 42.2917H14.5833C14.9701 42.2917 15.341 42.4453 15.6145 42.7188C15.888 42.9923 16.0417 43.3632 16.0417 43.75V59.7858C16.0417 60.1726 15.888 60.5435 15.6145 60.817C15.341 61.0905 14.9701 61.2442 14.5833 61.2442H10.2083C9.82156 61.2442 9.45063 61.0905 9.17714 60.817C8.90365 60.5435 8.75 60.1726 8.75 59.7858V43.75ZM25.8198 42.5673C27.179 41.9475 30.501 42.5673 30.501 42.5673L40.164 44.7344C40.164 44.7344 42.5804 45.5087 44.8452 45.5087C47.11 45.5087 45.7552 48.6092 44.24 49.6912C42.7262 50.7733 41.6237 50.715 41.6237 50.715L33.8217 50.6202C33.8217 50.6202 40.6175 51.8598 43.1842 52.0144C44.4835 52.0931 46.7133 51.1773 49.2071 50.155C51.6352 49.1575 54.3112 48.0594 56.6212 47.6773C61.3025 46.9044 62.0579 51.0854 60.5471 52.6342C59.0377 54.1829 46.9583 60.0673 44.8452 60.8417C43.1885 61.4483 41.1862 61.2471 38.9273 61.0196C38.3017 60.9569 37.6556 60.8913 36.9935 60.8417C34.354 60.6419 32.3385 60.0002 30.3435 59.3658C28.2027 58.6862 26.0867 58.014 23.2531 57.8987C22.3023 57.8608 20.0769 57.979 18.9583 58.0446V45.1208C20.8921 44.4325 24.8077 43.0281 25.8198 42.5673Z" fill="black"/>
</svg>
