<svg width="70" height="70" viewBox="0 0 70 70" fill="none" xmlns="http://www.w3.org/2000/svg">
<path d="M35.0002 37.9167C36.7452 37.9166 38.4505 38.4383 39.8967 39.4147C41.343 40.3912 42.4643 41.7778 43.1165 43.3964C43.7687 45.015 43.9221 46.7916 43.5568 48.4981C43.1916 50.2045 42.3244 51.7627 41.0668 52.9725L35.496 58.3333H43.7502V64.1667H26.2502V59.1383L37.0214 48.7696C37.369 48.4355 37.6283 48.0205 37.7762 47.5617C37.9241 47.1028 37.9559 46.6145 37.8689 46.1403C37.7819 45.6662 37.5787 45.221 37.2775 44.8446C36.9763 44.4682 36.5865 44.1723 36.143 43.9834C35.6994 43.7945 35.216 43.7185 34.7359 43.7622C34.2558 43.8059 33.794 43.9679 33.3919 44.2337C32.9897 44.4995 32.6597 44.8609 32.4314 45.2855C32.2031 45.71 32.0835 46.1846 32.0835 46.6667H26.2502C26.2502 44.346 27.172 42.1204 28.813 40.4795C30.4539 38.8385 32.6795 37.9167 35.0002 37.9167ZM52.5002 37.9167V49.5833H58.3335V37.9167H64.1668V64.1667H58.3335V55.4167H46.6668V37.9167H52.5002ZM11.6668 35C11.6632 38.4988 12.448 41.9534 13.9628 45.1073C15.4777 48.2612 17.6836 51.0332 20.4168 53.2175V60.2642C15.9812 57.705 12.298 54.0225 9.73786 49.5873C7.17776 45.1522 5.83113 40.121 5.8335 35H11.6668ZM35.0002 5.83333C50.1231 5.83333 62.5598 17.3454 64.021 32.0833H58.1527C57.5597 27.3809 55.5488 22.9705 52.3876 19.4389C49.2265 15.9073 45.0649 13.4221 40.4566 12.3138C35.8483 11.2055 31.0117 11.5267 26.5904 13.2347C22.1692 14.9426 18.3728 17.9564 15.7064 21.875H23.3335V27.7083H5.8335V10.2083H11.6668V17.5C14.3805 13.8743 17.9027 10.9317 21.9533 8.90637C26.004 6.88103 30.4714 5.82879 35.0002 5.83333Z" fill="black"/>
</svg>
