<svg width="100" height="100" viewBox="0 0 100 100" fill="none" xmlns="http://www.w3.org/2000/svg">
<path fill-rule="evenodd" clip-rule="evenodd" d="M50.0002 91.6667C73.0127 91.6667 91.6668 73.0125 91.6668 50C91.6668 26.9875 73.0127 8.33334 50.0002 8.33334C26.9877 8.33334 8.3335 26.9875 8.3335 50C8.3335 73.0125 26.9877 91.6667 50.0002 91.6667ZM74.8085 53.125H62.1043C61.5364 55.3239 60.3797 57.3263 58.7585 58.9167L65.1085 69.9167C67.763 67.9057 69.9887 65.3842 71.6545 62.5005C73.3203 59.6169 74.3926 56.4292 74.8085 53.125ZM59.7002 73.05L53.346 62.05C51.1567 62.6571 48.8436 62.6571 46.6543 62.05L40.3002 73.05C43.3706 74.3419 46.669 75.005 50.0002 75C53.4377 75 56.7168 74.3042 59.7002 73.05ZM34.8918 69.9208L41.2418 58.9208C39.6185 57.3298 38.4602 55.3258 37.8918 53.125H25.1918C25.6075 56.4293 26.6797 59.617 28.3456 62.5007C30.0114 65.3844 32.2371 67.91 34.8918 69.9208ZM74.8085 46.875H62.1043C61.5364 44.6761 60.3797 42.6737 58.7585 41.0833L65.1085 30.0833C67.763 32.0943 69.9887 34.6158 71.6545 37.4995C73.3203 40.3832 74.3926 43.5708 74.8085 46.875ZM59.7002 26.95C56.6296 25.6584 53.3313 24.9953 50.0002 25C46.5627 25 43.2835 25.6958 40.3002 26.95L46.6543 37.95C48.8435 37.3423 51.1568 37.3423 53.346 37.95L59.7002 26.95ZM41.2418 41.0833L34.8918 30.0833C32.2373 32.0943 30.0117 34.6158 28.3459 37.4995C26.68 40.3832 25.6077 43.5708 25.1918 46.875H37.896C38.471 44.6458 39.646 42.6542 41.2418 41.0833Z" fill="black"/>
</svg>
