<svg width="70" height="70" viewBox="0 0 70 70" fill="none" xmlns="http://www.w3.org/2000/svg">
<path d="M35.0002 5.83333C18.9177 5.83333 5.8335 18.9175 5.8335 35V47.0837C5.8335 50.0704 8.44975 52.5 11.6668 52.5H14.5835C15.357 52.5 16.0989 52.1927 16.6459 51.6457C17.1929 51.0987 17.5002 50.3569 17.5002 49.5833V34.5829C17.5002 33.8094 17.1929 33.0675 16.6459 32.5205C16.0989 31.9735 15.357 31.6662 14.5835 31.6662H11.9352C13.5568 20.3788 23.2693 11.6667 35.0002 11.6667C46.731 11.6667 56.4435 20.3788 58.0652 31.6662H55.4168C54.6433 31.6662 53.9014 31.9735 53.3544 32.5205C52.8074 33.0675 52.5002 33.8094 52.5002 34.5829V52.5C52.5002 55.7171 49.8839 58.3333 46.6668 58.3333H40.8335V55.4167H29.1668V64.1667H46.6668C53.101 64.1667 58.3335 58.9342 58.3335 52.5C61.5506 52.5 64.1668 50.0704 64.1668 47.0837V35C64.1668 18.9175 51.0827 5.83333 35.0002 5.83333Z" fill="black"/>
</svg>
